<svg width="63" height="64" viewBox="0 0 63 64" fill="none" xmlns="http://www.w3.org/2000/svg">
<g clip-path="url(#clip0_860_2)">
<rect x="5.41421" y="32.2852" width="38" height="38" rx="4" transform="rotate(-45 5.41421 32.2852)" stroke="url(#paint0_linear_860_2)" stroke-width="2"/>
<path d="M23.1818 39.2472C22.3466 39.2472 21.6023 39.1023 20.9489 38.8125C20.2955 38.517 19.7784 38.0824 19.3977 37.5085C19.0227 36.929 18.8352 36.2074 18.8352 35.3438C18.8352 34.6165 18.9688 34.0057 19.2358 33.5114C19.5028 33.017 19.8665 32.6193 20.3267 32.3182C20.7869 32.017 21.3097 31.7898 21.8949 31.6364C22.4858 31.483 23.1051 31.375 23.7528 31.3125C24.5142 31.233 25.1278 31.1591 25.5938 31.0909C26.0597 31.017 26.3977 30.9091 26.608 30.767C26.8182 30.625 26.9233 30.4148 26.9233 30.1364V30.0852C26.9233 29.5455 26.7528 29.1278 26.4119 28.8324C26.0767 28.5369 25.5994 28.3892 24.9801 28.3892C24.3267 28.3892 23.8068 28.5341 23.4205 28.8239C23.0341 29.108 22.7784 29.4659 22.6534 29.8977L19.2955 29.625C19.4659 28.8295 19.8011 28.142 20.3011 27.5625C20.8011 26.9773 21.446 26.5284 22.2358 26.2159C23.0313 25.8977 23.9517 25.7386 24.9972 25.7386C25.7244 25.7386 26.4205 25.8239 27.0852 25.9943C27.7557 26.1648 28.3494 26.429 28.8665 26.7869C29.3892 27.1449 29.8011 27.6051 30.1023 28.1676C30.4034 28.7244 30.554 29.392 30.554 30.1705V39H27.1108V37.1847H27.0085C26.7983 37.5938 26.517 37.9545 26.1648 38.267C25.8125 38.5739 25.3892 38.8153 24.8949 38.9915C24.4006 39.1619 23.8295 39.2472 23.1818 39.2472ZM24.2216 36.7415C24.7557 36.7415 25.2273 36.6364 25.6364 36.4261C26.0455 36.2102 26.3665 35.9205 26.5994 35.5568C26.8324 35.1932 26.9489 34.7812 26.9489 34.321V32.9318C26.8352 33.0057 26.679 33.0739 26.4801 33.1364C26.2869 33.1932 26.0682 33.2472 25.8239 33.2983C25.5795 33.3437 25.3352 33.3864 25.0909 33.4261C24.8466 33.4602 24.625 33.4915 24.4261 33.5199C24 33.5824 23.6278 33.6818 23.3097 33.8182C22.9915 33.9545 22.7443 34.1392 22.5682 34.3722C22.392 34.5994 22.304 34.8835 22.304 35.2244C22.304 35.7188 22.483 36.0966 22.8409 36.358C23.2045 36.6136 23.6648 36.7415 24.2216 36.7415ZM39.2855 39.2557C37.9446 39.2557 36.7912 38.9716 35.8253 38.4034C34.8651 37.8295 34.1264 37.0341 33.6094 36.017C33.098 35 32.8423 33.8295 32.8423 32.5057C32.8423 31.1648 33.1009 29.9886 33.6179 28.9773C34.1406 27.9602 34.8821 27.1676 35.8423 26.5994C36.8026 26.0256 37.9446 25.7386 39.2685 25.7386C40.4105 25.7386 41.4105 25.946 42.2685 26.3608C43.1264 26.7756 43.8054 27.358 44.3054 28.108C44.8054 28.858 45.081 29.7386 45.1321 30.75H41.706C41.6094 30.0966 41.3537 29.571 40.9389 29.1733C40.5298 28.7699 39.9929 28.5682 39.3281 28.5682C38.7656 28.5682 38.2741 28.7216 37.8537 29.0284C37.4389 29.3295 37.1151 29.7699 36.8821 30.3494C36.6491 30.929 36.5327 31.6307 36.5327 32.4545C36.5327 33.2898 36.6463 34 36.8736 34.5852C37.1065 35.1705 37.4332 35.6165 37.8537 35.9233C38.2741 36.2301 38.7656 36.3835 39.3281 36.3835C39.7429 36.3835 40.1151 36.2983 40.4446 36.1278C40.7798 35.9574 41.0554 35.7102 41.2713 35.3864C41.4929 35.0568 41.6378 34.6619 41.706 34.2017H45.1321C45.0753 35.2017 44.8026 36.0824 44.3139 36.8438C43.831 37.5994 43.1634 38.1903 42.3111 38.6165C41.4588 39.0426 40.4503 39.2557 39.2855 39.2557Z" fill="url(#paint1_linear_860_2)"/>
</g>
<defs>
<linearGradient id="paint0_linear_860_2" x1="43.7996" y1="32.0835" x2="3.49453" y2="72.3886" gradientUnits="userSpaceOnUse">
<stop stop-color="#3761B6"/>
<stop offset="1" stop-color="#2168F7"/>
</linearGradient>
<linearGradient id="paint1_linear_860_2" x1="32" y1="4.5" x2="32" y2="59.5" gradientUnits="userSpaceOnUse">
<stop stop-color="#3761B6"/>
<stop offset="1" stop-color="#2168F7"/>
</linearGradient>
<clipPath id="clip0_860_2">
<rect width="63" height="64" fill="white"/>
</clipPath>
</defs>
</svg>
